<svg width="41" height="35" viewBox="0 0 41 35" version="1.1" xmlns="http://www.w3.org/2000/svg" xmlns:xlink="http://www.w3.org/1999/xlink">
<title>Intersect</title>
<desc>Created using Figma</desc>
<g id="Canvas" transform="translate(22 -330)">
<g id="Intersect">
<use xlink:href="#path0_fill" transform="translate(-21.0106 330.013)" fill="#FEFDFF"/>
</g>
</g>
<defs>
<path id="path0_fill" fill-rule="evenodd" d="M 19.5106 26.8598C 16.4053 26.8598 14.4543 30.2096 15.9865 32.9106C 17.539 35.6473 21.4823 35.6473 23.0347 32.9106C 24.567 30.2096 22.616 26.8598 19.5106 26.8598ZM 8.46544 19.6526C 9.13151 20.8267 10.3772 21.5523 11.7272 21.5523L 27.2941 21.5523C 28.644 21.5523 29.8897 20.8267 30.5558 19.6526C 31.9739 17.1527 30.1682 14.0523 27.2941 14.0523L 11.7272 14.0523C 8.85303 14.0523 7.04729 17.1527 8.46544 19.6526ZM 0.493789 5.60032C 1.15986 6.77446 2.4056 7.5 3.75551 7.5L 35.2657 7.5C 36.6156 7.5 37.8614 6.77446 38.5274 5.60032C 39.9456 3.10043 38.1399 0 35.2657 0L 3.75551 0C 0.881377 0 -0.924363 3.10043 0.493789 5.60032Z"/>
</defs>
</svg>
