<svg width="45" height="45" viewBox="0 0 45 45" version="1.1" xmlns="http://www.w3.org/2000/svg" xmlns:xlink="http://www.w3.org/1999/xlink">
<title>Group</title>
<desc>Created using Figma</desc>
<g id="Canvas" transform="translate(-539 -344)">
<g id="Group">
<g id="Rectangle 2">
<use xlink:href="#path0_fill" transform="translate(539 344)" fill="#000000" fill-opacity="0.25"/>
</g>
<g id="Arrow">
<use xlink:href="#path1_stroke" transform="matrix(6.12323e-17 -1 1 6.12323e-17 562 377)" fill="#FEFDFF"/>
</g>
</g>
</g>
<defs>
<path id="path0_fill" d="M 0 22.5C 0 10.0736 10.0736 0 22.5 0C 34.9264 0 45 10.0736 45 22.5C 45 34.9264 34.9264 45 22.5 45C 10.0736 45 0 34.9264 0 22.5Z"/>
<path id="path1_stroke" d="M 21.7071 0.707107C 22.0976 0.316583 22.0976 -0.316583 21.7071 -0.707107L 15.3431 -7.07107C 14.9526 -7.46159 14.3195 -7.46159 13.9289 -7.07107C 13.5384 -6.68054 13.5384 -6.04738 13.9289 -5.65685L 19.5858 0L 13.9289 5.65685C 13.5384 6.04738 13.5384 6.68054 13.9289 7.07107C 14.3195 7.46159 14.9526 7.46159 15.3431 7.07107L 21.7071 0.707107ZM 0 1L 21 1L 21 -1L 0 -1L 0 1Z"/>
</defs>
</svg>
